<svg xmlns="http://www.w3.org/2000/svg" viewBox="0 0 337 398"><g id="Kesim-Konturu" fill="none" stroke="#ff00ff" stroke-width="1"><path d="M 56,33 L 53,36 L 34,47 L 16,65 L 12,74 L 13,85 L 18,93 L 23,98 L 23,101 L 17,107 L 14,112 L 14,123 L 22,140 L 22,143 L 19,146 L 17,153 L 17,157 L 21,167 L 19,169 L 14,180 L 14,194 L 18,202 L 25,211 L 25,213 L 19,224 L 19,236 L 22,243 L 28,249 L 27,254 L 27,277 L 28,278 L 28,283 L 31,289 L 31,293 L 22,309 L 16,326 L 16,341 L 21,350 L 33,360 L 62,372 L 86,378 L 91,378 L 96,380 L 103,380 L 108,382 L 116,382 L 117,383 L 134,384 L 135,385 L 185,385 L 186,384 L 208,383 L 215,381 L 227,380 L 232,378 L 251,375 L 265,370 L 269,370 L 272,368 L 281,366 L 286,363 L 298,359 L 316,348 L 321,342 L 324,335 L 324,325 L 319,308 L 312,295 L 312,292 L 320,282 L 320,266 L 319,265 L 319,255 L 318,254 L 318,250 L 320,246 L 320,235 L 317,230 L 309,224 L 309,218 L 314,200 L 316,182 L 318,177 L 318,169 L 314,157 L 318,150 L 321,137 L 320,120 L 315,110 L 311,107 L 311,101 L 319,92 L 324,83 L 324,74 L 320,66 L 298,47 L 282,37 L 270,32 L 268,30 L 251,24 L 239,22 L 233,19 L 226,19 L 203,14 L 179,13 L 178,12 L 135,14 L 111,19 L 98,19 L 85,24 L 78,24 L 76,26 L 64,29 L 62,31 Z"/></g></svg>